<svg xmlns="http://www.w3.org/2000/svg" viewBox="0 0 512 512" width="100%" height="100%">
  <defs>
    <linearGradient id="coral3D" x1="0%" y1="0%" x2="0%" y2="100%">
      <stop offset="0%" stop-color="#FF6B6B" />
      <stop offset="35%" stop-color="#E55252" />
      <stop offset="75%" stop-color="#D43D3D" />
      <stop offset="100%" stop-color="#A82020" />
    </linearGradient>
    <linearGradient id="sheen" x1="10%" y1="0%" x2="90%" y2="100%">
      <stop offset="0%" stop-color="#FFA8A8" stop-opacity="0.85" />
      <stop offset="55%" stop-color="#FFFFFF" stop-opacity="0.45" />
      <stop offset="100%" stop-color="#701010" stop-opacity="0.65" />
    </linearGradient>
    <filter id="glow" x="-20%" y="-20%" width="140%" height="140%">
      <feDropShadow dx="0" dy="8" stdDeviation="16" flood-color="#E55252" flood-opacity="0.35" />
    </filter>
  </defs>
  <g transform="translate(-160, 40) scale(1.15)" filter="url(#glow)">
    <path d="M 215,195 C 270,222 365,262 495,256 C 610,250 715,188 785,275 C 715,255 595,292 488,298 C 355,306 262,238 215,195 Z" fill="url(#coral3D)" />
    <path d="M 225,199 C 275,224 368,258 495,253 C 605,247 705,194 772,268 C 710,244 600,274 495,280 C 365,286 272,230 225,199 Z" fill="url(#sheen)" />
  </g>
</svg>